<svg width="50" height="50" viewBox="0 0 50 50" fill="none" xmlns="http://www.w3.org/2000/svg">
<g clip-path="url(#clip0_852_287)">
<path d="M41.5522 41.5526C50.6934 32.4114 50.6934 17.5906 41.5522 8.44939C32.411 -0.691797 17.5902 -0.691796 8.44905 8.44939C-0.692143 17.5906 -0.692143 32.4114 8.44905 41.5526C17.5902 50.6937 32.411 50.6938 41.5522 41.5526Z" fill="url(#paint0_radial_852_287)"/>
<path d="M11.3368 44.6089C9.18676 43.8941 9.02951 44.2515 8.07314 43.3937C7.11677 42.536 6.88804 42.1243 8.25683 41.3545C8.74503 41.8405 9.2854 42.3552 9.60633 42.6311C10.9787 42.774 15.8756 43.4116 18.9799 43.4516C22.0842 43.4917 22.6024 47.1935 22.6024 47.1935L11.3368 44.6089Z" fill="url(#paint1_linear_852_287)"/>
<path d="M4.28997 33.3417C2.83683 32.9636 1.002 32.0887 0.716091 30.9701C0.385864 29.6678 1.26361 29.4476 2.01841 29.4841C2.09775 29.958 2.14064 30.0766 2.17995 30.2496C3.17277 30.755 4.96758 31.2317 9.38275 31.3775C13.7429 31.5205 16.3625 31.9351 20.7684 36.1815C22.9306 38.2658 24.8484 39.8984 26.1793 41.155C27.7746 42.656 30.004 43.5595 32.3892 43.5959C35.3913 43.6417 39.3805 42.909 40.3719 42.6503C41.2439 41.8512 41.2782 41.8283 41.5662 41.5338C42.4776 41.4101 43.5733 41.7482 41.9236 43.3922C40.2739 45.0362 32.846 45.8117 29.8847 45.8646C26.9233 45.9175 19.925 41.4895 16.7371 38.3323C13.5492 35.1751 4.28997 33.3417 4.28997 33.3417Z" fill="url(#paint2_linear_852_287)"/>
<path d="M47.5759 31.7764C48.3185 31.404 49.2284 31.1209 49.3843 30.5326C49.5401 29.9444 48.7288 29.8179 47.9004 29.87C47.7882 30.2639 47.8375 30.1838 47.7488 30.5326C46.3679 31.033 41.9277 31.7099 34.9429 32.0151C29.6343 32.2474 22.8875 32.1345 21.8854 32.108L20.3779 32.9793L23.8232 33.98L39.2273 33.7656L47.5759 31.7764Z" fill="url(#paint3_linear_852_287)"/>
<path d="M13.1279 21.0146C15.4774 20.6036 13.0429 20.2998 15.6704 20.0346C18.2979 19.7694 19.2536 19.9267 20.9254 21.5192C22.5973 23.1117 28.9724 28.6834 29.888 29.5604L28.8394 29.8249L19.854 28.7642L13.1279 21.0146Z" fill="url(#paint4_linear_852_287)"/>
<path d="M2.93591 17.9758C1.7022 18.6126 0.840904 18.4625 0.654348 19.2938C0.467791 20.1251 1.48349 20.1058 2.12178 20.0236C2.21971 19.569 2.33622 19.2102 2.33622 19.2102C2.33622 19.2102 9.30171 17.8171 16.255 17.7635C20.1306 17.7342 20.9626 19.2645 22.292 20.4296C25.7308 23.4367 28.0917 25.7783 30.3211 27.5302C32.5505 29.2821 34.6734 29.711 38.3874 29.6652C41.4187 29.628 46.34 29.2363 48.0368 29.0705C47.9882 29.3271 47.9754 29.4844 47.9754 29.4844C47.9754 29.4844 49.6093 29.3214 49.7144 28.7646C49.8688 27.9512 47.9039 27.6367 47.1477 27.6631C46.3914 27.6896 36.6512 25.5796 36.6512 25.5796L20.8103 13.3154L2.93591 17.9758Z" fill="url(#paint5_linear_852_287)"/>
<path d="M8.07735 6.60394C12.6047 5.49818 18.6039 4.82129 25.0004 4.82129C31.3969 4.82129 37.396 5.49818 41.9234 6.60394C42.408 6.94918 43.0535 8.20933 41.6775 8.57529C41.3702 8.28938 40.8427 7.76831 40.8427 7.76831C40.8427 7.76831 33.5062 6.11289 25.0004 6.11289C16.4945 6.11289 11.2767 7.2065 9.29747 7.6418C8.68991 8.17287 8.26533 8.63462 8.26533 8.63462C7.37329 8.59102 7.20246 7.37304 8.07735 6.60394Z" fill="url(#paint6_linear_852_287)"/>
<path d="M32.2367 8.68776C31.3876 8.36897 29.1096 7.76855 29.1096 7.76855L28.5742 8.68776C28.5742 8.68776 35.1559 15.1629 37.0665 16.7554C38.9771 18.348 39.4024 18.4302 41.1007 18.6546C42.799 18.879 46.0255 19.2843 47.7595 19.5123C47.7874 19.626 47.816 19.7596 47.8489 19.8919C48.7695 20.0305 49.4828 19.8518 49.3456 19.2972C49.1969 18.6925 32.2367 8.68776 32.2367 8.68776Z" fill="url(#paint7_linear_852_287)"/>
<path d="M49.6815 21.0146C46.7981 20.7568 43.9132 20.5423 41.027 20.3713C39.1337 20.2637 37.3401 19.4876 35.9657 18.1812L29.2589 11.7711C26.5292 9.16145 22.8717 7.65899 19.0991 7.83411C12.6261 8.13431 7.41608 8.91771 5.05231 9.92697C2.94681 12.7058 1.44846 15.8958 0.654297 19.2905C2.7443 18.2184 9.04219 17.3478 16.9176 16.9875C18.8073 16.9102 20.6519 17.5775 22.0547 18.8459L29.7743 25.7793C32.5805 28.3003 36.2787 29.6648 40.0442 29.4596C43.2697 29.2838 46.4943 29.0506 49.7179 28.7599C50.106 26.1901 50.094 23.5757 49.6822 21.0096L49.6815 21.0146Z" fill="url(#paint8_radial_852_287)"/>
<path d="M28.8391 29.8269L19.2982 21.2568C18.385 20.4351 17.1912 19.9953 15.9631 20.0281C10.3328 20.1875 5.94195 20.5184 0.316665 21.0223C-0.0932125 23.585 -0.105267 26.1956 0.280926 28.7619C10.2042 29.6504 18.9044 30.0056 28.8391 29.8269Z" fill="url(#paint9_radial_852_287)"/>
<path d="M49.3843 30.5332C46.676 31.9692 36.4775 33.0349 24.9997 33.0349C23.4272 33.0349 21.884 33.0142 20.3779 32.9763L27.8316 39.6745C29.4756 41.1147 31.5992 41.8495 33.7321 41.8395C39.6919 41.8131 43.0149 40.8053 45.1192 39.8382C47.1702 37.0655 48.6226 33.8969 49.3843 30.5332Z" fill="url(#paint10_radial_852_287)"/>
<path d="M41.9263 43.3966C39.2101 44.0606 36.529 44.518 32.9723 44.7189C29.8873 44.8933 27.6179 44.1978 25.6466 42.4059L18.6811 36.1159C16.0778 33.7764 13.0579 32.6135 9.56267 32.4355C3.8123 32.1496 1.88169 31.4498 0.71875 30.9688C1.50441 34.1726 2.91949 37.1881 4.8816 39.8398C6.25326 40.4703 8.72638 41.0171 11.9293 41.4195C13.6748 41.6382 15.3416 42.3237 16.679 43.4659L18.3944 44.9326C14.5346 44.6424 10.9937 44.1092 8.07022 43.3944C12.6845 47.6415 18.7266 49.9988 24.9979 49.9988C31.2692 49.9988 37.3113 47.6415 41.9256 43.3944L41.9263 43.3966Z" fill="url(#paint11_radial_852_287)"/>
<path d="M8.07734 6.60378C12.6047 5.49802 18.6038 4.82113 25.0004 4.82113C31.3969 4.82113 37.396 5.49802 41.9234 6.60378C41.9316 6.61097 41.9402 6.61765 41.9491 6.6238C37.3315 2.36368 31.2789 -0.00119165 24.9963 4.50468e-07C18.7137 0.00119255 12.6619 2.36836 8.0459 6.63023C8.05591 6.62093 8.06734 6.61236 8.07734 6.60378Z" fill="url(#paint12_radial_852_287)"/>
<path d="M37.8048 16.0785C38.7024 16.9276 39.8541 17.458 41.0828 17.5881C45.0627 18.0256 48.0333 18.6189 49.3434 19.2943C48.5496 15.8996 47.0515 12.7095 44.9461 9.93075C42.3687 8.83 36.4039 8.00086 29.1074 7.76855L37.8048 16.0785Z" fill="url(#paint13_radial_852_287)"/>
</g>
<defs>
<radialGradient id="paint0_radial_852_287" cx="0" cy="0" r="1" gradientUnits="userSpaceOnUse" gradientTransform="translate(24.5899 20.3694) scale(37.7452)">
<stop offset="0.13" stop-color="#00FFF8"/>
<stop offset="0.2" stop-color="#01F9F5"/>
<stop offset="0.3" stop-color="#05E8EE"/>
<stop offset="0.4" stop-color="#0ACDE2"/>
<stop offset="0.52" stop-color="#12A6D1"/>
<stop offset="0.64" stop-color="#1C75BC"/>
<stop offset="0.94" stop-color="#2B3990"/>
</radialGradient>
<linearGradient id="paint1_linear_852_287" x1="18.5067" y1="44.8297" x2="6.52422" y2="42.4016" gradientUnits="userSpaceOnUse">
<stop stop-color="#C8C9CB"/>
<stop offset="0.73" stop-color="#A6A7A9"/>
<stop offset="1" stop-color="#999A9C"/>
</linearGradient>
<linearGradient id="paint2_linear_852_287" x1="0.647472" y1="37.6747" x2="42.7785" y2="37.6747" gradientUnits="userSpaceOnUse">
<stop stop-color="#C8C9CB"/>
<stop offset="0.14" stop-color="#C4C5C7"/>
<stop offset="0.27" stop-color="#B8B9BB"/>
<stop offset="0.4" stop-color="#A5A6A8"/>
<stop offset="0.46" stop-color="#999A9C"/>
<stop offset="0.7" stop-color="#ABACAE"/>
<stop offset="1" stop-color="#C8C9CB"/>
</linearGradient>
<linearGradient id="paint3_linear_852_287" x1="20.3779" y1="31.9193" x2="49.4036" y2="31.9193" gradientUnits="userSpaceOnUse">
<stop stop-color="#C8C9CB"/>
<stop offset="1" stop-color="#999A9C"/>
</linearGradient>
<linearGradient id="paint4_linear_852_287" x1="13.1279" y1="24.8772" x2="29.888" y2="24.8772" gradientUnits="userSpaceOnUse">
<stop stop-color="#929395"/>
<stop offset="0.5" stop-color="#C8C9CB"/>
<stop offset="1" stop-color="#999A9C"/>
</linearGradient>
<linearGradient id="paint5_linear_852_287" x1="0.63219" y1="21.4932" x2="49.7259" y2="21.4932" gradientUnits="userSpaceOnUse">
<stop stop-color="#929395"/>
<stop offset="0.5" stop-color="#C8C9CB"/>
<stop offset="1" stop-color="#999A9C"/>
</linearGradient>
<linearGradient id="paint6_linear_852_287" x1="7.50267" y1="6.7276" x2="42.506" y2="6.7276" gradientUnits="userSpaceOnUse">
<stop stop-color="#929395"/>
<stop offset="0.5" stop-color="#C8C9CB"/>
<stop offset="1" stop-color="#999A9C"/>
</linearGradient>
<linearGradient id="paint7_linear_852_287" x1="28.5742" y1="13.8513" x2="49.3628" y2="13.8513" gradientUnits="userSpaceOnUse">
<stop offset="0.39" stop-color="#C8C9CB"/>
<stop offset="0.81" stop-color="#999A9C"/>
</linearGradient>
<radialGradient id="paint8_radial_852_287" cx="0" cy="0" r="1" gradientUnits="userSpaceOnUse" gradientTransform="translate(25.9459 16.8617) scale(35.7088)">
<stop offset="0.04" stop-color="white"/>
<stop offset="0.35" stop-color="#E6E7E8"/>
<stop offset="0.43" stop-color="#DDDEDF"/>
<stop offset="0.57" stop-color="#C6C7C8"/>
<stop offset="0.75" stop-color="#9FA0A2"/>
<stop offset="0.94" stop-color="#6D6E71"/>
</radialGradient>
<radialGradient id="paint9_radial_852_287" cx="0" cy="0" r="1" gradientUnits="userSpaceOnUse" gradientTransform="translate(24.8771 16.8616) scale(35.5772 35.5773)">
<stop offset="0.04" stop-color="white"/>
<stop offset="0.35" stop-color="#E6E7E8"/>
<stop offset="0.43" stop-color="#DDDEDF"/>
<stop offset="0.57" stop-color="#C6C7C8"/>
<stop offset="0.75" stop-color="#9FA0A2"/>
<stop offset="0.94" stop-color="#6D6E71"/>
</radialGradient>
<radialGradient id="paint10_radial_852_287" cx="0" cy="0" r="1" gradientUnits="userSpaceOnUse" gradientTransform="translate(25.946 16.9789) scale(35.5458 35.5458)">
<stop offset="0.04" stop-color="white"/>
<stop offset="0.35" stop-color="#E6E7E8"/>
<stop offset="0.43" stop-color="#DDDEDF"/>
<stop offset="0.57" stop-color="#C6C7C8"/>
<stop offset="0.75" stop-color="#9FA0A2"/>
<stop offset="0.94" stop-color="#6D6E71"/>
</radialGradient>
<radialGradient id="paint11_radial_852_287" cx="0" cy="0" r="1" gradientUnits="userSpaceOnUse" gradientTransform="translate(25.9861 17.6082) scale(35.0412 35.0412)">
<stop offset="0.04" stop-color="white"/>
<stop offset="0.35" stop-color="#E6E7E8"/>
<stop offset="0.43" stop-color="#DDDEDF"/>
<stop offset="0.57" stop-color="#C6C7C8"/>
<stop offset="0.75" stop-color="#9FA0A2"/>
<stop offset="0.94" stop-color="#6D6E71"/>
</radialGradient>
<radialGradient id="paint12_radial_852_287" cx="0" cy="0" r="1" gradientUnits="userSpaceOnUse" gradientTransform="translate(25.9467 16.8622) scale(35.7102 35.7102)">
<stop offset="0.04" stop-color="white"/>
<stop offset="0.35" stop-color="#E6E7E8"/>
<stop offset="0.43" stop-color="#DDDEDF"/>
<stop offset="0.57" stop-color="#C6C7C8"/>
<stop offset="0.75" stop-color="#9FA0A2"/>
<stop offset="0.94" stop-color="#6D6E71"/>
</radialGradient>
<radialGradient id="paint13_radial_852_287" cx="0" cy="0" r="1" gradientUnits="userSpaceOnUse" gradientTransform="translate(25.9467 16.8612) scale(35.7095 35.7095)">
<stop offset="0.04" stop-color="white"/>
<stop offset="0.35" stop-color="#E6E7E8"/>
<stop offset="0.43" stop-color="#DDDEDF"/>
<stop offset="0.57" stop-color="#C6C7C8"/>
<stop offset="0.75" stop-color="#9FA0A2"/>
<stop offset="0.94" stop-color="#6D6E71"/>
</radialGradient>
<clipPath id="clip0_852_287">
<rect width="50" height="50" fill="white"/>
</clipPath>
</defs>
</svg>
