<svg width="209" height="69" viewBox="0 0 209 69" fill="none" xmlns="http://www.w3.org/2000/svg">
<g clip-path="url(#clip0_790_370)">
<path d="M13.6778 11.6064C10.6838 13.8553 8.68583 17.184 8.10935 20.8838C7.53287 24.5837 8.4234 28.3624 10.5913 31.4155C10.6273 31.4664 10.6652 31.5153 10.7021 31.5692C10.739 31.6231 10.7769 31.669 10.8149 31.7219C19.6422 43.6427 36.4466 46.2172 48.4422 37.4567C51.7184 35.071 54.4132 31.9761 56.3256 28.4029C61.0156 19.6374 60.6564 8.61976 54.5294 0C67.1277 17.5698 63.3188 42.0111 45.9715 54.9098L45.6881 55.1194L45.4017 55.3249C33.3751 63.8748 16.6745 61.1875 7.94593 49.2378C1.62331 40.5761 1.21118 29.4098 5.94616 20.5475C7.82845 17.0307 10.4694 13.9766 13.6778 11.6064Z" fill="url(#paint0_linear_790_370)"/>
<path d="M57.3945 13.68C55.1459 10.6845 51.8166 8.68541 48.1157 8.10853C44.4149 7.53164 40.6351 8.42256 37.5814 10.5915C37.5296 10.6274 37.4817 10.6654 37.4278 10.7023C37.3739 10.7392 37.328 10.7771 37.2751 10.815C25.3623 19.6404 22.7838 36.4488 31.5492 48.4434C33.935 51.7195 37.0299 54.4143 40.603 56.3267C49.3685 61.0168 60.3862 60.6576 69.0049 54.5305C51.4361 67.1289 26.9938 63.3209 14.0961 45.9726C14.0263 45.8778 13.9564 45.785 13.8866 45.6892L13.681 45.4039C5.1311 33.3773 7.81842 16.6756 19.7681 7.94711C28.4278 1.62349 39.5942 1.20637 48.4564 5.94534C51.9722 7.82925 55.0252 10.4712 57.3945 13.68Z" fill="url(#paint1_linear_790_370)"/>
<path d="M55.3212 57.3937C58.3174 55.1458 60.3175 51.8169 60.8953 48.116C61.4732 44.4151 60.583 40.6349 58.4146 37.5806C58.3777 37.5297 58.3408 37.4808 58.3029 37.427C58.2649 37.3731 58.229 37.3272 58.1911 37.2753C49.3568 25.3585 32.5524 22.7839 20.5567 31.5434C17.2808 33.9293 14.586 37.0243 12.6734 40.5972C7.98334 49.3627 8.34258 60.3814 14.4696 69.0001C1.87127 51.4313 5.67921 26.989 23.0275 14.0913C23.1213 14.0205 23.2151 13.9506 23.3109 13.8818C23.4067 13.8129 23.5005 13.7441 23.5963 13.6752C35.6228 5.1263 52.3245 7.81261 61.052 19.7623C67.3737 28.422 67.7928 39.5904 63.0538 48.4526C61.1708 51.9693 58.5296 55.0233 55.3212 57.3937Z" fill="url(#paint2_linear_790_370)"/>
<path d="M11.6064 55.3199C13.8543 58.3159 17.1831 60.3158 20.8837 60.8936C24.5844 61.4714 28.3644 60.5815 31.4185 58.4133C31.4704 58.3774 31.5183 58.3395 31.5732 58.3026L31.7249 58.1898C43.6417 49.3565 46.2172 32.5521 37.4567 20.5564C35.0705 17.2809 31.9756 14.5861 28.4029 12.6731C19.6374 7.98305 8.61876 8.34329 0 14.4693C17.5688 1.87098 42.0111 5.67992 54.9088 23.0272C54.9797 23.122 55.0485 23.2158 55.1184 23.3106C55.1882 23.4054 55.2561 23.5012 55.3249 23.596C63.8738 35.6236 61.1875 52.3242 49.2378 61.0528C40.5751 67.3754 29.4098 67.7915 20.5475 63.0485C17.0311 61.167 13.977 58.5271 11.6064 55.3199Z" fill="url(#paint3_linear_790_370)"/>
</g>
<path d="M99.5568 36.2727C99.5568 38.1761 99.196 39.7955 98.4744 41.1307C97.7585 42.4659 96.7813 43.4858 95.5426 44.1903C94.3097 44.8892 92.9233 45.2386 91.3835 45.2386C89.8324 45.2386 88.4403 44.8864 87.2074 44.1818C85.9744 43.4773 85 42.4574 84.2841 41.1222C83.5682 39.7869 83.2102 38.1705 83.2102 36.2727C83.2102 34.3693 83.5682 32.75 84.2841 31.4148C85 30.0795 85.9744 29.0625 87.2074 28.3636C88.4403 27.6591 89.8324 27.3068 91.3835 27.3068C92.9233 27.3068 94.3097 27.6591 95.5426 28.3636C96.7813 29.0625 97.7585 30.0795 98.4744 31.4148C99.196 32.75 99.5568 34.3693 99.5568 36.2727ZM95.8153 36.2727C95.8153 35.0398 95.6307 34 95.2614 33.1534C94.8977 32.3068 94.3835 31.6648 93.7188 31.2273C93.054 30.7898 92.2756 30.571 91.3835 30.571C90.4915 30.571 89.7131 30.7898 89.0483 31.2273C88.3835 31.6648 87.8665 32.3068 87.4972 33.1534C87.1335 34 86.9517 35.0398 86.9517 36.2727C86.9517 37.5057 87.1335 38.5455 87.4972 39.392C87.8665 40.2386 88.3835 40.8807 89.0483 41.3182C89.7131 41.7557 90.4915 41.9744 91.3835 41.9744C92.2756 41.9744 93.054 41.7557 93.7188 41.3182C94.3835 40.8807 94.8977 40.2386 95.2614 39.392C95.6307 38.5455 95.8153 37.5057 95.8153 36.2727ZM102.29 27.5455H106.842L111.648 39.2727H111.853L116.66 27.5455H121.211V45H117.631V33.6392H117.487L112.969 44.9148H110.532L106.015 33.5966H105.87V45H102.29V27.5455ZM138.851 27.5455V45H135.663L128.07 34.0142H127.942V45H124.251V27.5455H127.49L135.024 38.5227H135.178V27.5455H138.851ZM145.59 27.5455V45H141.9V27.5455H145.59Z" fill="white"/>
<defs>
<linearGradient id="paint0_linear_790_370" x1="51.9446" y1="15.7915" x2="22.4103" y2="39.1182" gradientUnits="userSpaceOnUse">
<stop stop-color="white"/>
<stop offset="1" stop-color="#262262"/>
</linearGradient>
<linearGradient id="paint1_linear_790_370" x1="53.2095" y1="51.9467" x2="29.8828" y2="22.4124" gradientUnits="userSpaceOnUse">
<stop stop-color="white"/>
<stop offset="1" stop-color="#262262"/>
</linearGradient>
<linearGradient id="paint2_linear_790_370" x1="17.0544" y1="53.2097" x2="46.5887" y2="29.883" gradientUnits="userSpaceOnUse">
<stop stop-color="white"/>
<stop offset="1" stop-color="#262262"/>
</linearGradient>
<linearGradient id="paint3_linear_790_370" x1="15.7905" y1="17.0541" x2="39.1172" y2="46.5884" gradientUnits="userSpaceOnUse">
<stop stop-color="white"/>
<stop offset="1" stop-color="#262262"/>
</linearGradient>
<clipPath id="clip0_790_370">
<rect width="69" height="69" fill="white"/>
</clipPath>
</defs>
</svg>
